<?xml version="1.0" encoding="utf-8"?>
<?xml-stylesheet type="text/xsl" href="rss1.xsl"?>
<rss version="2.0" xmlns:atom="http://www.w3.org/2005/Atom" xmlns:content="http://purl.org/rss/1.0/modules/content/" xmlns:dc="http://purl.org/dc/elements/1.1/" xmlns:media="http://search.yahoo.com/mrss/">
<channel>
 <title>Getty</title>
 <link>http://www.gettyimg.com/</link>
 <atom:link href="http://www.gettyimg.com/" rel="self" type="application/rss+xml" />

 
                <item>
                <title><![CDATA[【BLU-RAY】BD REMUX - TWICE 트와이스 – TWICE 5TH WORLD TOUR ‘READY TO BE’ in JAPAN [2024.04.24]]]></title>
                <link><![CDATA[https://sharemania.us/threads/twice-%ED%8A%B8%EC%99%80%EC%9D%B4%EC%8A%A4-%E2%80%93-twice-5th-world-tour-%E2%80%98ready-to-be%E2%80%99-in-japan-2024-04-24.243785/]]></link>
                <description><![CDATA[<article>
<blockquote class="messageText SelectQuoteContainer ugc baseHtml">
<img src="https://pbs.twimg.com/media/GI2l4LqaEAAqqGJ?format=jpg&amp;name=large" class="bbCodeImage LbImage" alt="[​IMG]" data-url="https://pbs.twimg.com/media/GI2l4LqaEAAqqGJ?format=jpg&amp;name=large" style=""> <img src="https://blog.ticketmaster.com/wp-content/uploads/TWICE_TM_BLOG_1024x614.jpg" class="bbCodeImage LbImage" alt="[​IMG]" data-url="https://blog.ticketmaster.com/wp-content/uploads/TWICE_TM_BLOG_1024x614.jpg" style=""><br>
<br>
<div class="bbCodeBlock bbCodeVfcHH HiddenContent">
<div class="attribution type">Hidden Content:</div>
<blockquote>You must either reply or click 'Like' to see the hidden information contained here.</blockquote>
</div>
<div class="ToggleTriggerAnchor bbCodeSpoilerContainer">
<button type="button" class="button bbCodeSpoilerButton ToggleTrigger Tooltip JsOnly" data-target="> .SpoilerTarget"><span>Spoiler: <span class="SpoilerTitle">info</span></span></button>
<div class="SpoilerTarget bbCodeSpoilerText">General<br>
Unique ID : 190679941595108043852393749626636473752 (0x8F739EF558E9033E01D6AC9AE3CC1598)<br>
Complete name : F:\twice\tw5mk\TWICE.5TH.WORLD.TOUR.READY.TO.BE.in.JAPAN.2024.1080i.LE.BluRay.Rmx.mkv<br>
Format : Matroska<br>
Format version : Version 2<br>
File size : 32.2 GiB<br>
Duration : 1 h 58 min<br>
Overall bit rate mode : Variable<br>
Overall bit rate : 38.9 Mb/s<br>
Movie name : TWICE 5TH WORLD TOUR 'READY TO BE' in JAPAN<br>
Encoded date : UTC 2024-04-29 20:28:23<br>
Writing application : MakeMKV v1.17.6 win(x64-release)<br>
Writing library : libmakemkv v1.17.6 (1.3.10/1.5.2) win(x64-release)<br>
Original source medium : Blu-ray<br>
Video<br>
ID : 1<br>
ID in the original source medi : 4113 (0x1011)<br>
Format : AVC<br>
Format/Info : Advanced Video Codec<br>
Format profile : High@L4.1<br>
Format settings, CABAC : Yes<br>
Format settings, RefFrames : 4 frames<br>
Codec ID : V_MPEG4/ISO/AVC<br>
Duration : 1 h 58 min<br>
Bit rate mode : Variable<br>
Bit rate : 37.1 Mb/s<br>
Maximum bit rate : 38.0 Mb/s<br>
Width : 1 920 pixels<br>
Height : 1 080 pixels<br>
Display aspect ratio : 16:9<br>
Frame rate mode : Constant<br>
Frame rate : 29.970 (30000/1001) FPS<br>
Color space : YUV<br>
Chroma subsampling : 4:2:0<br>
Bit depth : 8 bits<br>
Scan type : MBAFF<br>
Scan type, store method : Interleaved fields<br>
Scan order : Top Field First<br>
Bits/(Pixel*Frame) : 0.597<br>
Stream size : 30.6 GiB (95%)<br>
Language : English<br>
Default : No<br>
Forced : No<br>
Audio<br>
ID : 2<br>
ID in the original source medi : 4352 (0x1100)<br>
Format : FLAC<br>
Format/Info : Free Lossless Audio Codec<br>
Codec ID : A_FLAC<br>
Duration : 1 h 58 min<br>
Bit rate mode : Variable<br>
Bit rate : 1 834 kb/s<br>
Channel(s) : 2 channels<br>
Channel positions : Front: L R<br>
Sampling rate : 48.0 kHz<br>
Frame rate : 10.417 FPS (4608 SPF)<br>
Bit depth : 24 bits<br>
Stream size : 1.52 GiB (5%)<br>
Title : Stereo<br>
Writing library : MakeMKV v1.17.6 win(x64-release)<br>
Language : Japanese<br>
Default : Yes<br>
Forced : No<br>
Menu<br>
00:00:00.000 : ja:Chapter 01<br>
00:01:21.681 : ja:Chapter 02<br>
00:03:12.091 : ja:Chapter 03<br>
00:06:12.271 : ja:Chapter 04<br>
00:09:47.119 : ja:Chapter 05<br>
00:15:00.199 : ja:Chapter 06<br>
00:18:27.339 : ja:Chapter 07<br>
00:21:56.782 : ja:Chapter 08<br>
00:24:57.128 : ja:Chapter 09<br>
00:28:10.422 : ja:Chapter 10<br>
00:34:42.613 : ja:Chapter 11<br>
00:36:21.779 : ja:Chapter 12<br>
00:37:08.626 : ja:Chapter 13<br>
00:40:25.156 : ja:Chapter 14<br>
00:43:49.360 : ja:Chapter 15<br>
00:47:49.199 : ja:Chapter 16<br>
00:51:10.300 : ja:Chapter 17<br>
00:52:16.800 : ja:Chapter 18<br>
00:56:19.242 : ja:Chapter 19<br>
01:00:03.733 : ja:Chapter 20<br>
01:01:26.416 : ja:Chapter 21<br>
01:08:22.965 : ja:Chapter 22<br>
01:11:06.729 : ja:Chapter 23<br>
01:14:38.941 : ja:Chapter 24<br>
01:17:41.289 : ja:Chapter 25<br>
01:21:53.642 : ja:Chapter 26<br>
01:25:14.876 : ja:Chapter 27<br>
01:28:40.915 : ja:Chapter 28<br>
01:31:59.514 : ja:Chapter 29<br>
01:35:09.804 : ja:Chapter 30<br>
01:37:58.172 : ja:Chapter 31<br>
01:46:12.532 : ja:Chapter 32<br>
01:47:40.687 : ja:Chapter 33<br>
01:51:03.323 : ja:Chapter 34<br>
01:54:16.449 : ja:Chapter 35<br>
<img src="https://scontent.fhan3-5.fna.fbcdn.net/v/t1.15752-9/437607153_4531500510408289_2159448185937399527_n.jpg?_nc_cat=110&amp;ccb=1-7&amp;_nc_sid=5f2048&amp;_nc_ohc=RS5qPA_WwrwQ7kNvgFAwunL&amp;_nc_ht=scontent.fhan3-5.fna&amp;oh=03_Q7cD1QGFGMM-Tx9xkB2syMv6AIqHV3jHi6iSkveazhFKc1I0DA&amp;oe=665DFE8C" class="bbCodeImage LbImage" alt="[​IMG]" data-url="https://scontent.fhan3-5.fna.fbcdn.net/v/t1.15752-9/437607153_4531500510408289_2159448185937399527_n.jpg?_nc_cat=110&amp;ccb=1-7&amp;_nc_sid=5f2048&amp;_nc_ohc=RS5qPA_WwrwQ7kNvgFAwunL&amp;_nc_ht=scontent.fhan3-5.fna&amp;oh=03_Q7cD1QGFGMM-Tx9xkB2syMv6AIqHV3jHi6iSkveazhFKc1I0DA&amp;oe=665DFE8C" style=""></div>
</div>
<div class="messageTextEndMarker">&nbsp;</div>
</blockquote>
</article>]]></description>
                <author><![CDATA[dangbui06100]]></author>
                </item>

                </channel></rss>